<svg width="151" height="77" viewBox="0 0 151 77" fill="none" xmlns="http://www.w3.org/2000/svg"><path d="M4.32 3.256l3.816 9.792h.036l3.762-9.792h2.772V16h-1.782V5.344h-.036L8.658 16H7.524L3.312 5.344h-.036V16H1.548V3.256H4.32zm18.348 7.452v-.234c0-1.26-.846-1.872-2.106-1.872-.954 0-1.854.414-2.43.99l-.9-1.08c.828-.792 2.106-1.278 3.492-1.278 2.448 0 3.564 1.458 3.564 3.348v3.726c0 .576.036 1.278.126 1.692h-1.53a5.551 5.551 0 01-.144-1.224h-.054c-.612.918-1.584 1.44-2.862 1.44-1.35 0-3.096-.666-3.096-2.628 0-2.574 3.06-2.88 5.94-2.88zm0 1.224h-.414c-1.674 0-3.798.18-3.798 1.62 0 1.008.9 1.332 1.746 1.332 1.584 0 2.466-1.062 2.466-2.502v-.45zm4.014-4.464h1.602c.036.432.072 1.044.072 1.404h.054c.414-.918 1.548-1.638 2.772-1.638 2.196 0 3.186 1.566 3.186 3.474V16h-1.692v-4.734c0-1.386-.378-2.61-1.944-2.61-1.332 0-2.286 1.116-2.286 2.808V16h-1.692V9.304c0-.45-.018-1.278-.072-1.836zm15.498 3.24v-.234c0-1.26-.846-1.872-2.106-1.872-.954 0-1.854.414-2.43.99l-.9-1.08c.828-.792 2.106-1.278 3.492-1.278 2.448 0 3.564 1.458 3.564 3.348v3.726c0 .576.036 1.278.126 1.692h-1.53a5.551 5.551 0 01-.144-1.224h-.054c-.612.918-1.584 1.44-2.862 1.44-1.35 0-3.096-.666-3.096-2.628 0-2.574 3.06-2.88 5.94-2.88zm0 1.224h-.414c-1.674 0-3.798.18-3.798 1.62 0 1.008.9 1.332 1.746 1.332 1.584 0 2.466-1.062 2.466-2.502v-.45zm3.672 6.84l1.08-1.314c.738.828 1.944 1.386 3.114 1.386 2.25 0 3.006-1.386 3.006-3.15v-1.098h-.036c-.63.954-1.8 1.476-3.006 1.476-2.61 0-4.302-1.944-4.302-4.392 0-2.448 1.674-4.446 4.284-4.446 1.224 0 2.43.54 3.078 1.602h.036V7.468h1.638v8.1c0 2.484-1.17 4.752-4.716 4.752-1.476 0-3.114-.576-4.176-1.548zm1.602-7.128c0 1.566 1.044 3.006 2.826 3.006 1.746 0 2.898-1.314 2.898-3.006 0-1.62-1.17-3.006-2.898-3.006-1.782 0-2.826 1.368-2.826 3.006zm10.995-.666h5.076c-.036-1.35-.828-2.412-2.394-2.412-1.458 0-2.574 1.08-2.682 2.412zm6.786.684c0 .18 0 .378-.018.576H58.45c.054 1.458 1.278 2.592 2.772 2.592 1.152 0 1.998-.576 2.484-1.296l1.188.954c-.918 1.188-2.16 1.746-3.672 1.746-2.592 0-4.5-1.8-4.5-4.482 0-2.664 1.908-4.518 4.41-4.518 2.52 0 4.104 1.71 4.104 4.428zM4.356 24.174c0 .918-.756 1.62-1.692 1.62-.954 0-1.692-.738-1.692-1.62 0-.864.738-1.62 1.692-1.62.936 0 1.692.72 1.692 1.62zM4.14 36H1.188v-8.964H4.14V36zm10.834 0h-2.97v-4.896c0-.99-.27-1.89-1.332-1.89-1.044 0-1.584.9-1.584 1.926V36h-2.97v-8.964H8.98v1.242h.036c.414-.792 1.44-1.494 2.682-1.494 2.412 0 3.276 1.872 3.276 3.672V36zm10.948-8.964L22.394 36h-3.186l-3.528-8.964h3.258l1.89 5.814h.054l1.89-5.814h3.15zm10.285 4.446c0 2.934-2.268 4.806-4.986 4.806-2.7 0-4.968-1.872-4.968-4.806s2.268-4.734 4.968-4.734c2.718 0 4.986 1.8 4.986 4.734zm-2.844 0c0-1.152-.756-2.286-2.142-2.286s-2.106 1.134-2.106 2.286c0 1.152.738 2.322 2.124 2.322 1.386 0 2.124-1.17 2.124-2.322zm7.557-7.308c0 .918-.756 1.62-1.692 1.62-.954 0-1.692-.738-1.692-1.62 0-.864.738-1.62 1.692-1.62.936 0 1.692.72 1.692 1.62zM40.704 36h-2.952v-8.964h2.952V36zm9.862-8.046l-1.71 1.98c-.324-.432-.972-.72-1.566-.72-1.242 0-2.07 1.062-2.07 2.304 0 1.242.81 2.286 2.106 2.286.594 0 1.242-.234 1.602-.666l1.638 1.998c-.738.72-1.998 1.152-3.312 1.152-2.826 0-5.022-1.8-5.022-4.77 0-2.916 2.214-4.77 5.004-4.77 1.278 0 2.628.486 3.33 1.206zm3.185 2.538h3.798c0-.936-.594-1.71-1.764-1.71-1.134 0-1.962.792-2.034 1.71zm6.516 1.134c0 .234 0 .486-.018.702H53.75c.09.99 1.08 1.692 2.142 1.692.936 0 1.584-.396 1.98-.936l2.052 1.296c-.846 1.224-2.25 1.908-4.068 1.908-2.7 0-4.932-1.71-4.932-4.734 0-2.934 2.124-4.806 4.842-4.806 2.646 0 4.5 1.818 4.5 4.878zm8.364-3.618l-1.62 1.674c-.468-.45-1.151-.81-1.871-.81-.558 0-1.117.198-1.117.72 0 .504.487.648 1.639.9 1.367.306 2.861.99 2.861 2.736 0 2.268-1.998 3.06-3.834 3.06-1.457 0-2.97-.486-3.905-1.386l1.656-1.746c.522.576 1.332 1.008 2.195 1.008.486 0 1.063-.198 1.063-.774 0-.558-.558-.738-1.782-1.026-1.242-.288-2.61-.918-2.61-2.61 0-2.142 2.016-3.006 3.725-3.006 1.332 0 2.718.432 3.6 1.26zm3.63 5.886l-1.493 4.5h-1.44l1.242-4.5h1.692zM3.529 50.492h3.798c0-.936-.594-1.71-1.764-1.71-1.134 0-1.962.792-2.034 1.71zm6.516 1.134c0 .234 0 .486-.018.702H3.528c.09.99 1.08 1.692 2.142 1.692.936 0 1.584-.396 1.98-.936l2.052 1.296c-.846 1.224-2.25 1.908-4.068 1.908-2.7 0-4.932-1.71-4.932-4.734 0-2.934 2.124-4.806 4.842-4.806 2.646 0 4.5 1.818 4.5 4.878zM20.704 56H17.23l-1.926-2.754L13.324 56h-3.42l3.582-4.698-3.24-4.266h3.438l1.674 2.394 1.692-2.394h3.33l-3.222 4.266L20.704 56zm10.706-4.518c0 2.502-1.566 4.77-4.266 4.77-1.098 0-2.16-.468-2.718-1.242h-.036v5.31h-2.952V47.036h2.808v1.098h.054c.54-.72 1.548-1.35 2.862-1.35 2.61 0 4.248 2.196 4.248 4.698zm-2.862 0c0-1.152-.702-2.286-2.106-2.286-1.332 0-2.16 1.17-2.16 2.304 0 1.17.828 2.304 2.16 2.304 1.404 0 2.106-1.152 2.106-2.322zm6.736-.99h3.798c0-.936-.594-1.71-1.764-1.71-1.134 0-1.962.792-2.034 1.71zm6.516 1.134c0 .234 0 .486-.018.702h-6.498c.09.99 1.08 1.692 2.142 1.692.936 0 1.584-.396 1.98-.936l2.052 1.296c-.846 1.224-2.25 1.908-4.068 1.908-2.7 0-4.932-1.71-4.932-4.734 0-2.934 2.124-4.806 4.842-4.806 2.646 0 4.5 1.818 4.5 4.878zM52.127 56h-2.97v-4.896c0-.99-.27-1.89-1.332-1.89-1.044 0-1.584.9-1.584 1.926V56h-2.97v-8.964h2.862v1.242h.036c.414-.792 1.44-1.494 2.682-1.494 2.412 0 3.276 1.872 3.276 3.672V56zm8.77-7.992l-1.62 1.674c-.469-.45-1.153-.81-1.873-.81-.558 0-1.116.198-1.116.72 0 .504.486.648 1.638.9 1.368.306 2.862.99 2.862 2.736 0 2.268-1.998 3.06-3.834 3.06-1.458 0-2.97-.486-3.906-1.386l1.656-1.746c.522.576 1.332 1.008 2.196 1.008.486 0 1.062-.198 1.062-.774 0-.558-.558-.738-1.782-1.026-1.242-.288-2.61-.918-2.61-2.61 0-2.142 2.016-3.006 3.726-3.006 1.332 0 2.718.432 3.6 1.26zm3.612 2.484h3.798c0-.936-.594-1.71-1.764-1.71-1.134 0-1.962.792-2.034 1.71zm6.516 1.134c0 .234 0 .486-.018.702h-6.498c.09.99 1.08 1.692 2.142 1.692.936 0 1.584-.396 1.98-.936l2.052 1.296c-.846 1.224-2.25 1.908-4.068 1.908-2.7 0-4.932-1.71-4.932-4.734 0-2.934 2.124-4.806 4.842-4.806 2.646 0 4.5 1.818 4.5 4.878zm8.364-3.618l-1.62 1.674c-.468-.45-1.152-.81-1.872-.81-.558 0-1.116.198-1.116.72 0 .504.486.648 1.638.9 1.368.306 2.862.99 2.862 2.736 0 2.268-1.998 3.06-3.834 3.06-1.458 0-2.97-.486-3.906-1.386l1.656-1.746c.522.576 1.332 1.008 2.196 1.008.486 0 1.062-.198 1.062-.774 0-.558-.558-.738-1.782-1.026-1.242-.288-2.61-.918-2.61-2.61 0-2.142 2.016-3.006 3.726-3.006 1.332 0 2.718.432 3.6 1.26zm-72.621 22.7v-.234c0-1.26-.846-1.872-2.106-1.872-.954 0-1.854.414-2.43.99l-.9-1.08c.828-.792 2.106-1.278 3.492-1.278 2.448 0 3.564 1.458 3.564 3.348v3.726c0 .576.036 1.278.126 1.692h-1.53a5.551 5.551 0 01-.144-1.224h-.054c-.612.918-1.584 1.44-2.862 1.44-1.35 0-3.096-.666-3.096-2.628 0-2.574 3.06-2.88 5.94-2.88zm0 1.224h-.414c-1.674 0-3.798.18-3.798 1.62 0 1.008.9 1.332 1.746 1.332 1.584 0 2.466-1.062 2.466-2.502v-.45zm4.014-4.464h1.602c.036.432.072 1.044.072 1.404h.054c.414-.918 1.548-1.638 2.772-1.638 2.196 0 3.186 1.566 3.186 3.474V76h-1.692v-4.734c0-1.386-.378-2.61-1.944-2.61-1.332 0-2.286 1.116-2.286 2.808V76h-1.692v-6.696c0-.45-.018-1.278-.072-1.836zm16.992 7.182c-.648 1.026-1.872 1.584-3.078 1.584-2.628 0-4.302-2.016-4.302-4.518 0-2.52 1.728-4.482 4.284-4.482 1.386 0 2.448.684 3.042 1.512h.036v-6.354h1.692V76H27.81v-1.35h-.036zm-5.616-2.934c0 1.602.972 3.096 2.826 3.096 1.728 0 2.88-1.44 2.88-3.078s-1.152-3.096-2.88-3.096c-1.854 0-2.826 1.476-2.826 3.078zM41.18 69.25h-2.106v3.42c0 .828.27 1.26 1.116 1.26.288 0 .648-.054.864-.144l.036 2.16c-.396.144-1.08.27-1.71.27-2.394 0-3.186-1.278-3.186-3.186v-3.78h-1.44v-2.214h1.422v-2.358h2.898v2.358h2.106v2.214zm6.32 3.15v-.306h-.379c-1.296 0-2.754.162-2.754 1.224 0 .684.684.918 1.279.918 1.188 0 1.853-.72 1.853-1.836zm-3.925-2.538l-1.494-1.602c1.044-.99 2.538-1.512 3.996-1.512 3.007 0 4.123 1.476 4.123 4.734V76h-2.7v-.954h-.054c-.45.738-1.477 1.17-2.538 1.17-1.422 0-3.258-.702-3.258-2.808 0-2.592 3.15-3.024 5.76-3.024v-.144c0-.882-.702-1.296-1.62-1.296-.846 0-1.675.414-2.215.918zM61.638 76h-3.474l-1.926-2.754L54.257 76h-3.42l3.582-4.698-3.24-4.266h3.438l1.674 2.394 1.692-2.394h3.33l-3.222 4.266L61.637 76zm2.705-5.508h3.798c0-.936-.594-1.71-1.764-1.71-1.134 0-1.962.792-2.034 1.71zm6.516 1.134c0 .234 0 .486-.018.702h-6.498c.09.99 1.08 1.692 2.142 1.692.936 0 1.584-.396 1.98-.936l2.052 1.296c-.846 1.224-2.25 1.908-4.068 1.908-2.7 0-4.932-1.71-4.932-4.734 0-2.934 2.124-4.806 4.842-4.806 2.646 0 4.5 1.818 4.5 4.878zm8.365-3.618l-1.62 1.674c-.468-.45-1.152-.81-1.872-.81-.558 0-1.116.198-1.116.72 0 .504.486.648 1.638.9 1.368.306 2.862.99 2.862 2.736 0 2.268-1.998 3.06-3.834 3.06-1.458 0-2.97-.486-3.906-1.386l1.656-1.746c.522.576 1.332 1.008 2.196 1.008.486 0 1.062-.198 1.062-.774 0-.558-.558-.738-1.782-1.026-1.242-.288-2.61-.918-2.61-2.61 0-2.142 2.016-3.006 3.726-3.006 1.332 0 2.718.432 3.6 1.26z" fill="#fff"/></svg>