<svg width="74" height="51" viewBox="0 0 74 51" fill="none" xmlns="http://www.w3.org/2000/svg"><path d="M5.558 4.216V5.61h4.015v3.606H5.576v4.462h-4.35V.517h8.886v3.7H5.558zm5.076 9.462V3.9h4.126v1.115h.037c.428-.78 1.283-1.375 2.398-1.375.316 0 .632.037.818.093l-.334 3.643a3.705 3.705 0 00-.911-.111c-1.116 0-1.84.743-1.84 1.672v4.74h-4.294zm11.129-6.19h2.956c0-.688-.558-1.19-1.413-1.19-.948 0-1.469.65-1.543 1.19zm6.655 1.394c0 .316-.019.687-.037.91H21.8c.074.688.892 1.116 1.672 1.116.78 0 1.338-.353 1.599-.688l3.048 1.543c-.855 1.394-2.584 2.286-4.758 2.286-2.844 0-5.54-1.803-5.54-5.26 0-3.235 2.435-5.26 5.447-5.26 3.067 0 5.149 2.267 5.149 5.353zM33.1 7.488h2.955c0-.688-.557-1.19-1.413-1.19-.948 0-1.468.65-1.542 1.19zm6.654 1.394c0 .316-.018.687-.037.91h-6.58c.074.688.892 1.116 1.673 1.116.78 0 1.338-.353 1.598-.688l3.049 1.543c-.855 1.394-2.584 2.286-4.759 2.286-2.844 0-5.539-1.803-5.539-5.26 0-3.235 2.435-5.26 5.446-5.26 3.067 0 5.15 2.267 5.15 5.353z" fill="#fff"/><path d="M9.908 25.707v.074c1.357.428 2.249 1.673 2.249 2.919 0 3.085-2.826 4.35-5.502 4.35-2.696 0-5.335-1.228-6.042-4.053l4.127-.967c.149.651.762 1.302 1.673 1.302.502 0 1.152-.224 1.152-.893 0-.799-.762-.966-1.914-.966H4.387v-3.049H5.8c.948 0 1.56-.204 1.56-.948 0-.576-.557-.762-1.04-.762-.613 0-1.208.39-1.338 1.134l-4.108-.874c.873-2.862 3.476-3.829 5.818-3.829 2.342 0 5.223 1.116 5.223 3.885 0 1.487-.91 2.36-2.007 2.677zm9.242 7.342c-4.833 0-5.911-4.09-5.911-7.026 0-2.937 1.078-6.878 5.91-6.878 4.852 0 5.912 3.941 5.912 6.878 0 2.937-1.06 7.026-5.912 7.026zm0-10.093c-1.097 0-1.339 1.673-1.339 3.067 0 1.45.242 3.178 1.338 3.178 1.116 0 1.339-1.728 1.339-3.178 0-1.394-.223-3.067-1.338-3.067zm6.695 6.022v-3.197h5.13v3.197h-5.13zm5.91-1.226c0-2.51 1.543-5.112 4.461-5.112.93 0 1.97.372 2.547 1.04h.037v-5.055h4.275v14.053h-3.848v-1.023h-.037c-.558.78-1.766 1.283-2.974 1.283-2.918 0-4.461-2.603-4.461-5.186zm3.978 0c0 .929.576 1.654 1.598 1.654 1.004 0 1.673-.744 1.673-1.654 0-.855-.669-1.618-1.673-1.618-1.022 0-1.598.762-1.598 1.618zm14.412.873h-.242c-1.264 0-2.1.223-2.1.967 0 .539.576.762.985.762.818 0 1.357-.576 1.357-1.394v-.335zm-.279-2.119v-.037c0-.595-.446-.874-1.115-.874-.781 0-1.524.39-2.064.837l-2.137-2.12c1.17-1.133 2.918-1.784 4.647-1.784 3.717 0 4.703 2.25 4.703 5v5.15h-3.885v-.781h-.038c-.483.743-1.542 1.04-2.397 1.04-1.525 0-3.402-.817-3.402-3.14 0-2.733 3.104-3.29 5.688-3.29zm8.175 6.004l.075-.204-3.96-9.406h4.76l1.449 5.149h.074l1.283-5.149h4.591l-4.015 10.372c-.948 2.435-2.249 3.867-5.13 3.867-.892 0-1.933-.168-2.435-.298l.539-3.532c.316.112.836.224 1.208.224.948 0 1.338-.428 1.562-1.023zm-52.8 18.428c-2.601 0-3.865-1.116-3.865-3.476v-3.495H0V40.9h1.357v-2.193H5.52V40.9H7.64v3.067H5.52v2.602c0 .948.428 1.209 1.153 1.209.279 0 .614-.056.78-.112v2.937c-.445.186-1.319.335-2.211.335zm3.196-.26V40.9h4.127v1.115h.037c.427-.78 1.282-1.375 2.398-1.375.316 0 .632.037.818.093l-.335 3.643a3.702 3.702 0 00-.91-.111c-1.116 0-1.84.743-1.84 1.672v4.74H8.436zm7.925 0V40.9h4.293v9.778h-4.293zm-.075-12.603c0-1.19 1.023-2.194 2.25-2.194 1.17 0 2.193 1.004 2.193 2.194 0 1.226-1.023 2.174-2.194 2.174-1.226 0-2.249-.948-2.249-2.174zm11.448 8.55h-.242c-1.264 0-2.1.223-2.1.967 0 .539.576.762.985.762.818 0 1.357-.576 1.357-1.394v-.335zm-.279-2.119v-.037c0-.595-.446-.874-1.115-.874-.78 0-1.524.39-2.063.837l-2.138-2.12c1.171-1.133 2.918-1.784 4.647-1.784 3.718 0 4.703 2.25 4.703 5v5.15h-3.885v-.781h-.037c-.484.743-1.543 1.04-2.398 1.04-1.524 0-3.402-.817-3.402-3.14 0-2.733 3.104-3.29 5.688-3.29zm5.425 6.172V36.624h4.386v14.053h-4.386z" fill="#3BD85E"/></svg>