<svg width="110" height="34" viewBox="0 0 110 34" fill="none" xmlns="http://www.w3.org/2000/svg"><rect x="1" y="1" width="108" height="32" rx="3.116" fill="#14324F"/><path d="M23.393 21.5v-8.823h1.57v7.427h3.751V21.5h-5.321zm7.217-3.59h3.066c0-.772-.436-1.445-1.408-1.445-.885 0-1.595.61-1.658 1.446zm4.562.674c0 .137 0 .262-.013.399H30.61c.063.847.835 1.47 1.708 1.47.748 0 1.246-.299 1.582-.773l.997.798c-.585.798-1.433 1.196-2.567 1.196-1.844 0-3.215-1.183-3.215-3.127 0-1.932 1.358-3.203 3.165-3.203 1.67 0 2.892 1.084 2.892 3.24zM40.26 21.5v-.76h-.038c-.299.523-1.01.91-1.857.91-.96 0-2.243-.462-2.243-1.857 0-1.782 2.243-2.032 4.113-2.032v-.15c0-.735-.623-1.096-1.371-1.096-.636 0-1.246.3-1.633.686l-.772-.91c.673-.623 1.62-.947 2.53-.947 2.143 0 2.666 1.32 2.666 2.517V21.5h-1.395zm-.025-2.517v-.212h-.337c-.947 0-2.28.112-2.28.997 0 .573.535.747 1.046.747 1.022 0 1.57-.585 1.57-1.532zm3.163 2.517v-5.982h1.433v.997h.025c.324-.685.96-1.171 1.744-1.171.113 0 .262.012.362.037v1.37c-.2-.049-.324-.061-.461-.061-1.346 0-1.608 1.171-1.608 1.607V21.5H43.4zm4.54 0v-5.982h1.42v.96h.025c.261-.598.972-1.134 1.856-1.134 1.558 0 2.206 1.196 2.206 2.417V21.5h-1.495v-3.315c0-.71-.162-1.595-1.122-1.595-.947 0-1.395.822-1.395 1.62v3.29h-1.496zm17.509-6.156c1.558 0 2.206 1.196 2.206 2.417V21.5h-1.496v-3.315c0-.71-.162-1.595-1.121-1.595-.935 0-1.321.872-1.321 1.645V21.5H62.22v-3.614c0-.735-.349-1.296-1.109-1.296-.897 0-1.309.822-1.309 1.62v3.29h-1.495v-5.982h1.42v.96h.026c.261-.586.897-1.134 1.856-1.134.923 0 1.533.46 1.87 1.134.399-.723 1.072-1.134 1.969-1.134zm3.597 3.14c0-1.882 1.446-3.14 3.253-3.14 1.807 0 3.252 1.258 3.252 3.14 0 1.882-1.445 3.19-3.252 3.19-1.807 0-3.253-1.308-3.253-3.19zm1.52 0c0 .935.549 1.944 1.733 1.944 1.183 0 1.732-1.01 1.732-1.944 0-.935-.549-1.919-1.732-1.919-1.184 0-1.733.984-1.733 1.92zM77 21.5v-5.982h1.433v.997h.025c.324-.685.96-1.171 1.745-1.171.112 0 .262.012.361.037v1.37c-.199-.049-.324-.061-.46-.061-1.347 0-1.608 1.171-1.608 1.607V21.5H77zm5.467-3.59h3.066c0-.772-.436-1.445-1.408-1.445-.885 0-1.596.61-1.658 1.446zm4.561.674c0 .137 0 .262-.012.399h-4.549c.062.847.835 1.47 1.707 1.47.748 0 1.247-.299 1.583-.773l.997.798c-.586.798-1.433 1.196-2.567 1.196-1.844 0-3.215-1.183-3.215-3.127 0-1.932 1.358-3.203 3.165-3.203 1.67 0 2.891 1.084 2.891 3.24z" fill="#fff"/></svg>