<svg width="47" height="46" viewBox="0 0 47 46" fill="none" xmlns="http://www.w3.org/2000/svg">
<circle cx="23.6797" cy="23" r="22" fill="url(#paint0_linear_3804_111)" fill-opacity="0.5" stroke="url(#paint1_linear_3804_111)" stroke-width="2"/>
<path d="M35.0073 27.9452C35.0073 31.9438 32.6235 34.3276 28.6249 34.3276H27.3177C26.7135 34.3276 26.2192 33.8332 26.2192 33.2291V26.8907C26.2192 26.5941 26.4609 26.3414 26.7575 26.3414L28.6908 26.3085C28.8446 26.2975 28.9765 26.1876 29.0094 26.0338L29.3939 23.9357C29.4268 23.738 29.2731 23.5512 29.0643 23.5512L26.7245 23.5842C26.4169 23.5842 26.1753 23.3425 26.1643 23.0459L26.1203 20.3546C26.1203 20.1788 26.2631 20.025 26.4499 20.025L29.0863 19.9811C29.2731 19.9811 29.4159 19.8383 29.4159 19.6515L29.3719 17.0151C29.3719 16.8283 29.2291 16.6855 29.0424 16.6855L26.0764 16.7295C24.2529 16.7624 22.8028 18.2564 22.8358 20.0799L22.8907 23.1008C22.9017 23.4084 22.66 23.6501 22.3525 23.6611L21.0342 23.683C20.8475 23.683 20.7047 23.8258 20.7047 24.0126L20.7377 26.0998C20.7377 26.2865 20.8805 26.4293 21.0672 26.4293L22.3854 26.4073C22.693 26.4073 22.9347 26.649 22.9456 26.9456L23.0445 33.2071C23.0555 33.8223 22.5612 34.3276 21.946 34.3276H19.4194C15.4209 34.3276 13.0371 31.9438 13.0371 27.9343V18.7398C13.0371 14.7412 15.4209 12.3574 19.4194 12.3574H28.6249C32.6235 12.3574 35.0073 14.7412 35.0073 18.7398V27.9452Z" fill="#C0C0C0"/>
<defs>
<linearGradient id="paint0_linear_3804_111" x1="23.6797" y1="0" x2="23.6797" y2="46" gradientUnits="userSpaceOnUse">
<stop stop-color="#2B2B2B"/>
<stop offset="1" stop-color="#3F3F3F"/>
</linearGradient>
<linearGradient id="paint1_linear_3804_111" x1="23.6797" y1="0" x2="23.6797" y2="46" gradientUnits="userSpaceOnUse">
<stop stop-color="#AAAAAA"/>
<stop offset="1" stop-color="#828282"/>
</linearGradient>
</defs>
</svg>
