<svg width="47" height="46" viewBox="0 0 47 46" fill="none" xmlns="http://www.w3.org/2000/svg">
<circle cx="23.0371" cy="23" r="22" fill="url(#paint0_linear_3804_106)" fill-opacity="0.5" stroke="url(#paint1_linear_3804_106)" stroke-width="2"/>
<path d="M34.2939 18.1673C34.2805 17.2437 34.1097 16.3275 33.7827 15.4637C33.2105 13.9887 32.0454 12.8224 30.5704 12.2514C29.7176 11.9305 28.816 11.7585 27.9034 11.739C26.7298 11.6865 26.3577 11.6719 23.3784 11.6719C20.3991 11.6719 20.0172 11.6719 18.8521 11.739C17.9408 11.7585 17.0392 11.9305 16.1864 12.2514C14.7114 12.8224 13.545 13.9887 12.974 15.4637C12.6532 16.3165 12.4799 17.2181 12.4629 18.1294C12.4104 19.3043 12.3945 19.6764 12.3945 22.6557C12.3945 25.635 12.3945 26.0157 12.4629 27.182C12.4812 28.0946 12.6532 28.995 12.974 29.8502C13.5462 31.324 14.7114 32.4903 16.1876 33.0613C17.0367 33.3931 17.9383 33.581 18.8533 33.6103C20.0282 33.6628 20.4003 33.6786 23.3796 33.6786C26.3589 33.6786 26.7408 33.6786 27.9059 33.6103C28.8172 33.592 29.7188 33.42 30.5729 33.0991C32.0479 32.5269 33.213 31.3606 33.7852 29.8868C34.106 29.0328 34.2781 28.1324 34.2964 27.2186C34.3488 26.0449 34.3647 25.6728 34.3647 22.6923C34.3622 19.713 34.3622 19.3348 34.2939 18.1673ZM23.3711 28.2898C20.2551 28.2898 17.7309 25.7656 17.7309 22.6496C17.7309 19.5337 20.2551 17.0095 23.3711 17.0095C26.4846 17.0095 29.0112 19.5337 29.0112 22.6496C29.0112 25.7656 26.4846 28.2898 23.3711 28.2898ZM29.2357 18.116C28.5074 18.116 27.9205 17.528 27.9205 16.8008C27.9205 16.0737 28.5074 15.4857 29.2357 15.4857C29.9616 15.4857 30.5497 16.0737 30.5497 16.8008C30.5497 17.528 29.9616 18.116 29.2357 18.116Z" fill="#C0C0C0"/>
<path d="M23.3669 26.3138C25.3903 26.3138 27.0306 24.6735 27.0306 22.6501C27.0306 20.6266 25.3903 18.9863 23.3669 18.9863C21.3434 18.9863 19.7031 20.6266 19.7031 22.6501C19.7031 24.6735 21.3434 26.3138 23.3669 26.3138Z" fill="#C0C0C0"/>
<defs>
<linearGradient id="paint0_linear_3804_106" x1="23.0371" y1="0" x2="23.0371" y2="46" gradientUnits="userSpaceOnUse">
<stop stop-color="#2B2B2B"/>
<stop offset="1" stop-color="#3F3F3F"/>
</linearGradient>
<linearGradient id="paint1_linear_3804_106" x1="23.0371" y1="0" x2="23.0371" y2="46" gradientUnits="userSpaceOnUse">
<stop stop-color="#AAAAAA"/>
<stop offset="1" stop-color="#828282"/>
</linearGradient>
</defs>
</svg>
