<svg width="47" height="46" viewBox="0 0 47 46" fill="none" xmlns="http://www.w3.org/2000/svg">
<circle cx="23.3203" cy="23" r="22" fill="url(#paint0_linear_3804_115)" fill-opacity="0.5" stroke="url(#paint1_linear_3804_115)" stroke-width="2"/>
<path d="M34.8329 17.0112C34.6936 16.5121 34.4279 16.0574 34.0616 15.6911C33.6952 15.3247 33.2405 15.0591 32.7415 14.9198C30.8685 14.418 23.3303 14.418 23.3303 14.418C23.3303 14.418 15.8112 14.408 13.9191 14.9198C13.4201 15.0591 12.9654 15.3247 12.599 15.6911C12.2327 16.0574 11.967 16.5121 11.8277 17.0112C11.4727 18.9288 11.2977 20.8754 11.3049 22.8255C11.299 24.7684 11.4741 26.7075 11.8277 28.6179C11.967 29.1169 12.2327 29.5716 12.599 29.938C12.9654 30.3043 13.4201 30.57 13.9191 30.7093C15.7901 31.2121 23.3303 31.2121 23.3303 31.2121C23.3303 31.2121 30.8484 31.2121 32.7415 30.7093C33.2405 30.57 33.6952 30.3043 34.0616 29.938C34.4279 29.5716 34.6936 29.1169 34.8329 28.6179C35.1792 26.7068 35.3468 24.7677 35.3337 22.8255C35.3482 20.8761 35.1805 18.9295 34.8329 17.0112ZM20.9244 26.4224V19.2177L27.1985 22.8255L20.9244 26.4224Z" fill="#C0C0C0"/>
<defs>
<linearGradient id="paint0_linear_3804_115" x1="23.3203" y1="0" x2="23.3203" y2="46" gradientUnits="userSpaceOnUse">
<stop stop-color="#2B2B2B"/>
<stop offset="1" stop-color="#3F3F3F"/>
</linearGradient>
<linearGradient id="paint1_linear_3804_115" x1="23.3203" y1="0" x2="23.3203" y2="46" gradientUnits="userSpaceOnUse">
<stop stop-color="#AAAAAA"/>
<stop offset="1" stop-color="#828282"/>
</linearGradient>
</defs>
</svg>
