<svg width="47" height="46" viewBox="0 0 47 46" fill="none" xmlns="http://www.w3.org/2000/svg">
<circle cx="23.9629" cy="23" r="22" fill="url(#paint0_linear_3804_119)" fill-opacity="0.5" stroke="url(#paint1_linear_3804_119)" stroke-width="2"/>
<path d="M18.0844 32.2675H13.6719V18.0578H18.0844V32.2675ZM15.8758 16.1195C14.4648 16.1195 13.3203 14.9508 13.3203 13.5398C13.3203 12.8621 13.5895 12.2121 14.0688 11.7329C14.548 11.2536 15.198 10.9844 15.8758 10.9844C16.5535 10.9844 17.2035 11.2536 17.6827 11.7329C18.162 12.2121 18.4312 12.8621 18.4312 13.5398C18.4312 14.9508 17.2863 16.1195 15.8758 16.1195ZM34.5991 32.2675H30.1961V25.3503C30.1961 23.7018 30.1628 21.5877 27.9019 21.5877C25.6078 21.5877 25.2562 23.3787 25.2562 25.2315V32.2675H20.8484V18.0578H25.0804V19.9962H25.1422C25.7313 18.8797 27.1703 17.7015 29.3172 17.7015C33.783 17.7015 34.6039 20.6423 34.6039 24.4619V32.2675H34.5991Z" fill="#C0C0C0"/>
<defs>
<linearGradient id="paint0_linear_3804_119" x1="23.9629" y1="0" x2="23.9629" y2="46" gradientUnits="userSpaceOnUse">
<stop stop-color="#2B2B2B"/>
<stop offset="1" stop-color="#3F3F3F"/>
</linearGradient>
<linearGradient id="paint1_linear_3804_119" x1="23.9629" y1="0" x2="23.9629" y2="46" gradientUnits="userSpaceOnUse">
<stop stop-color="#AAAAAA"/>
<stop offset="1" stop-color="#828282"/>
</linearGradient>
</defs>
</svg>
